<?xml version="1.0" encoding="UTF-8"?>
<svg id="Ebene_2" data-name="Ebene 2" xmlns="http://www.w3.org/2000/svg" viewBox="0 0 232.51 287.48">
  <defs>
    <style>
      .cls-1 {
        fill: #ffc107;
      }

      .cls-2 {
        fill: #f5ae18;
      }
    </style>
  </defs>
  <g id="Ebene_1-2" data-name="Ebene 1">
    <g>
      <rect class="cls-2" x="90.55" y="255.16" width="67.37" height="30.84" rx="12" ry="12"/>
      <path class="cls-2" d="M145.92,286.3c-12.47-.29-25.95,.56-38.45,1.04-1.61,.02-3.95,.16-5.56,.13-7.52-.07-13.66-7.02-13.25-14.43,0,0-.06-2.75-.06-2.75l-.06-2.75c-.45-7.74,6.19-14.78,14.01-14.79,14.15-.27,28.4-.97,42.56-.62,8.65-.35,15.89,7.42,14.65,15.98-.14,1.37-.35,4.12-.48,5.49-.22,6.94-6.49,12.94-13.37,12.69h0Zm0-.6c6.3-.03,11.51-5.9,10.63-12.09,0,0-.24-2.75-.24-2.75-.19-1.78-.24-3.83-.6-5.17-1.1-4.76-5.92-7.98-10.6-7.51-6.73,.15-13.88,.12-20.6-.05-7.32-.22-14.65-.41-21.97-.57-5.34-.23-10.16,4.6-9.99,9.99,.09,4.22-.94,8.75,1.57,12.3,1.75,2.64,4.74,4.43,7.93,4.63,0,0,10.91,.4,10.91,.4,10.65,.49,22.36,1.07,32.95,.83h0Z"/>
    </g>
    <path class="cls-1" d="M133.02,6.64s-.03-1.94-.03-1.94v-.46c13.7,1.13,27.16,4.51,39.88,9.7,42.91,17.52,62.62,53.32,59.27,97.83-.21,26.99-14.61,51.74-32.27,71.27-3.44,3.92-6.78,7.72-9.36,11.87-5.32,8.34-7.21,18.6-8.29,28.33,0,0-.38,3.01-.38,3.01,0,0-3.03-.04-3.03-.04l-45.51-.66s-3.7-.05-3.7-.05c-.24-19.21-.43-38.42-.35-57.63,.3-53.11,1.23-108.47,3.75-161.5,0,0,.8,0,.8,0,1.29,25.88,2.11,54.7,2.7,80.75,.93,44.25,1.4,90.42,.75,134.58,0,0-3.75-3.85-3.75-3.85l45.49,1.67-3.41,2.96c1.41-10.71,3.73-21.68,9.78-30.86,5.98-8.98,13.82-15.71,20.12-24.18,10.92-13.98,19.11-30.43,21.61-48.09,5.61-47.6-9.94-83.61-54.98-103.68-12.28-5.35-25.4-9.04-38.75-10.55l.45-.42s-.03,1.94-.03,1.94h-.8Z"/>
    <path d="M113.92,6.97h.51s-.27,.26-.27,.26c0,0-.03-4.72-.03-4.72l.27,.28c-7.26,.03-14.57,.73-21.69,2.2C7.34,23.04-24.3,129.1,37.11,191.01c19.51,19.76,46.81,31.64,74.61,32.17,.59,0,2.04,.09,2.58,.06,0,0-1.85,1.96-1.85,1.96,0,0,.02-4.72,.02-4.72l2.06,1.94c-7.16-.02-14.29-.69-21.31-2.08C43.46,211,5.32,164.8,6.08,114.11,5.54,55.97,55.97,6.3,113.92,6.97h0Zm0,.5c-42.17-.56-82.49,26.88-97.75,66.11-21.96,53.2,4.53,116.08,58.03,137.32,13.31,5.39,27.8,8.06,42.16,7.56,.01,2.32,.02,6.32,.04,8.63,0,0-1.86,.08-1.86,.08-14.93,.11-29.86-2.64-43.71-8.27C12.88,195.89-16.02,127.63,9.1,70.31,26.48,29.06,69.85,1.36,114.43,2.23c0,0,.27,0,.27,0,0,0,0,.28,0,.28l-.03,4.72v.26s-.27,0-.27,0h-.49Z"/>
    <path d="M113.92,44.11s.51,.01,.51,.01l-.26,.25v-5s.23,.24,.23,.24c-9.74-.1-19.54,1.78-28.53,5.56-48.13,20.12-60.69,83.85-23.25,120.33,13.2,13.01,31.46,20.69,49.99,20.77,.4,0,1.26,.04,1.68,.01,0,0-1.95,2.06-1.95,2.06,0,0-.04-5-.04-5,0,0,2.23,2.11,2.23,2.11-.77,.04-1.26,0-1.87,0-8.82-.07-17.62-1.8-25.82-5.07-26.63-10.26-45.39-37.67-44.85-66.26-.2-38.66,33.74-70.74,71.92-70.01h0Zm0,.5c-27.29-.17-53.05,18.15-62.46,43.58-13.41,34.17,3.16,73.83,37.16,87.87,8.08,3.4,16.92,5.14,25.68,5.18,0,0,2.25-.07,2.25-.07,0,0-.02,2.18-.02,2.18-.03,1.06-.03,5.94-.06,7.03-.43,0-2.1,.04-2.5,.04-9.89-.12-19.78-2.05-28.91-5.88-49.92-20.76-63.21-86.23-24.05-123.95,14.21-13.84,33.83-21.63,53.64-21.46,0,0,0,.23,0,.23v5s.01,.25,.01,.25c0,0-.26,0-.26,0,0,0-.49,0-.49,0h0Z"/>
    <g>
      <path d="M114.42,100.36v28c-7.73,0-14-6.27-14-14s6.27-14,14-14Z"/>
      <path d="M114.52,100.25c1.05,9.7,1.73,19.77,1.29,29.6-13.97,.55-21.82-15.88-11.67-25.76,2.76-2.61,6.59-4.08,10.38-3.84h0Zm-.21,.21c-11.75,.73-17.51,14.67-9,23,2.45,2.34,5.81,3.59,9.1,3.45l-1.45,1.45c-.39-9.14,.55-18.73,1.34-27.89h0Z"/>
    </g>
    <g>
      <rect x="50.52" y="216.86" width="146.5" height="30.84" rx="12" ry="12"/>
      <path d="M185.02,248c-33.94-.32-70.36,1.31-104.38,1.42-4.72,.04-13.62,.16-18.29,.19-7.25,.09-13.75-6.14-13.93-13.42-.07-.88-.02-1.84-.05-2.68-.02-1.21-.03-3.38-.05-4.57-.18-7.75,6.41-14.5,14.2-14.49,24.17-.28,59.66-.99,83.5-.6,11.31,.17,25.25,.61,36.53,1.15,0,0,2.63,.13,2.63,.13,4.9,.22,9.59,3.38,11.53,7.77,1.7,3.36,1.13,7.17,1.05,10.75,0,1.08-.06,2.21-.16,3.33-.74,6.14-6.39,11.21-12.59,11.02h0Zm0-.6c7.38-.19,12.2-6.56,11.26-13.74-.16-3.3,.15-6.8-1.59-9.71-1.94-3.45-5.72-5.51-9.54-5.36,0,0-2.59,.11-2.59,.11-18.79,.92-38.62,1.32-57.41,1.28-13.28-.03-48.91-.52-62.63-.72-2.79-.04-5.56,1.22-7.41,3.36-1.29,1.46-2.07,3.33-2.32,5.25-.08,.91-.07,2.12-.09,3.04-.03,.86-.02,3.08-.04,3.91-.42,4.83,2.82,9.54,7.58,10.66,1.23,.36,3.45,.31,4.75,.33,0,0,5.22,.06,5.22,.06,0,0,10.44,.11,10.44,.11,0,0,20.88,.23,20.88,.23,27.06,.38,56.54,1.52,83.5,1.2h0Z"/>
    </g>
    <path d="M174.92,267.83c-24.48-.64-48.94,1.57-73.4,2.2-6.66,.16-22.16,.55-28.67,.71-8.73,.38-16.29-7.16-16.11-15.9,0-1.14-.09-3.44-.09-4.59-.89-9.63,6.17-18.01,15.98-18.21,34.49-.79,69.1-2.88,103.49,.86,7.62,.98,13.59,8.45,12.69,15.99,0,0-.19,2.29-.19,2.29,0,0-.38,4.64-.38,4.64-.58,6.74-6.66,12.23-13.33,12.01h0Zm0-1.1c5.81,0,10.97-5.28,10.62-11.02-.02-1.21-.24-3.26-.33-4.53,0,0-.19-2.29-.19-2.29-.14-3.15-2.04-6.17-4.63-7.63-2.05-1.3-4.54-1.31-6.84-1-3.06,.25-6.12,.54-9.17,.76-18.33,1.33-36.69,1.34-55.05,.87-12.23-.37-24.47-.81-36.7-1.05-1.94-.06-3.89,.65-5.38,2-1.77,1.56-2.68,3.91-2.62,6.26-.04,.73-.04,2.69-.07,3.44,0,0-.05,2.29-.05,2.29-.16,2.72,.92,5.31,3.08,7.06,1.77,1.52,4.12,2.02,6.4,1.95,0,0,9.17,.23,9.17,.23,30.42,.25,61.37,3.26,91.75,2.65h0Z"/>
  </g>
</svg>